<svg xmlns="http://www.w3.org/2000/svg" enable-background="new 0 0 47.5 47.5" viewBox="0 0 47.5 47.5"><defs><clipPath id="a"><path d="M0 38h38V0H0v38Z"/></clipPath></defs><g clip-path="url(#a)" transform="matrix(1.25 0 0 -1.25 0 47.5)"><path fill="#ea596e" d="M0 0h-13a1 1 0 1 0 0 2H0c2.542 0 4 1.367 4 3.75C4 7.287 2.357 9 0 9h-7a1 1 0 1 0 0 2h7c3.589 0 6-2.715 6-5.25C6 2.257 3.645 0 0 0" transform="translate(31 1)"/><path fill="#ccd6dd" d="M0 0c0 2.85 3 7.035 0 7.035-4 0-10.137-6.566-10.137-8.442 0-1.876 6.441-1.876 9.29-1.876C2.002-3.283 0-2.85 0 0" transform="translate(13 10.283)"/><path fill="#ccd6dd" d="M0 0c0 7.973-6.554 9.752-11.381 8.787-9.38-1.876-11.132-6.442-11.132-10.194 0-4.922 9.149-4.691 14.071-4.691C-3.521-6.098 0-4.923 0 0" transform="translate(34 13.098)"/><path fill="#ccd6dd" d="m0 0-17.106-1.875 3.531-5.629H0V0Z" transform="translate(26 14.504)"/><path fill="#ccd6dd" d="M0 0c0 2.683-1.997 4.857-4.458 4.857-2.463 0-4.46-2.174-4.46-4.857 0-2.683 1.997-4.857 4.46-4.857C-1.997-4.857 0-2.683 0 0" transform="translate(17.918 19.857)"/><path fill="#f4abba" d="M0 0c0-1.788-1.141-3.239-2.548-3.239-1.408 0-2.548 1.451-2.548 3.239 0 1.788 1.14 3.238 2.548 3.238C-1.141 3.238 0 1.788 0 0" transform="translate(15.37 19.317)"/><path fill="#dd2e44" d="M0 0a1.5 1.5 0 1 0-3 0 1.5 1.5 0 0 0 3 0" transform="translate(11 12.5)"/></g></svg>